<svg width="50" height="50" viewBox="0 0 50 50" fill="none" xmlns="http://www.w3.org/2000/svg">
<rect width="49.9615" height="50" rx="10" fill="#C4C4C4" fill-opacity="0.1"/>
<path d="M36.2221 22.5C36.2221 31.25 24.9808 38.75 24.9808 38.75C24.9808 38.75 13.7394 31.25 13.7394 22.5C13.7394 19.5163 14.9238 16.6548 17.032 14.545C19.1401 12.4353 21.9994 11.25 24.9808 11.25C27.9622 11.25 30.8215 12.4353 32.9296 14.545C35.0378 16.6548 36.2221 19.5163 36.2221 22.5Z" stroke="#17C2EC" stroke-width="2" stroke-linecap="round" stroke-linejoin="round"/>
<path d="M24.9808 26.25C27.0502 26.25 28.7279 24.5711 28.7279 22.5C28.7279 20.4289 27.0502 18.75 24.9808 18.75C22.9113 18.75 21.2336 20.4289 21.2336 22.5C21.2336 24.5711 22.9113 26.25 24.9808 26.25Z" stroke="#17C2EC" stroke-width="2" stroke-linecap="round" stroke-linejoin="round"/>
</svg>
