<svg width="249" height="32" viewBox="0 0 249 32" fill="none" xmlns="http://www.w3.org/2000/svg">
<path d="M9.66403 25.184L2.48849e-05 2.78399H5.60003L14.048 22.624H10.752L19.328 2.78399H24.48L14.784 25.184H9.66403ZM35.277 25.184V21.824L34.957 21.088V15.072C34.957 14.0053 34.6264 13.1733 33.965 12.576C33.325 11.9787 32.333 11.68 30.989 11.68C30.0717 11.68 29.165 11.8293 28.269 12.128C27.3944 12.4053 26.6477 12.7893 26.029 13.28L24.237 9.79199C25.1757 9.13066 26.3064 8.61866 27.629 8.25599C28.9517 7.89332 30.2957 7.71199 31.661 7.71199C34.285 7.71199 36.3224 8.33066 37.773 9.56799C39.2237 10.8053 39.949 12.736 39.949 15.36V25.184H35.277ZM30.029 25.44C28.685 25.44 27.533 25.216 26.573 24.768C25.613 24.2987 24.877 23.6693 24.365 22.88C23.853 22.0907 23.597 21.2053 23.597 20.224C23.597 19.2 23.8424 18.304 24.333 17.536C24.845 16.768 25.645 16.1707 26.733 15.744C27.821 15.296 29.2397 15.072 30.989 15.072H35.565V17.984H31.533C30.3597 17.984 29.549 18.176 29.101 18.56C28.6744 18.944 28.461 19.424 28.461 20C28.461 20.64 28.7064 21.152 29.197 21.536C29.709 21.8987 30.4024 22.08 31.277 22.08C32.109 22.08 32.8557 21.888 33.517 21.504C34.1784 21.0987 34.6584 20.512 34.957 19.744L35.725 22.048C35.3624 23.1573 34.701 24 33.741 24.576C32.781 25.152 31.5437 25.44 30.029 25.44ZM52.912 25.44C51.056 25.44 49.4027 25.0667 47.952 24.32C46.5014 23.552 45.36 22.496 44.528 21.152C43.7174 19.808 43.312 18.2827 43.312 16.576C43.312 14.848 43.7174 13.3227 44.528 12C45.36 10.656 46.5014 9.61066 47.952 8.86399C49.4027 8.09599 51.056 7.71199 52.912 7.71199C54.7254 7.71199 56.304 8.09599 57.648 8.86399C58.992 9.61066 59.984 10.688 60.624 12.096L56.752 14.176C56.304 13.3653 55.7387 12.768 55.056 12.384C54.3947 12 53.6694 11.808 52.88 11.808C52.0267 11.808 51.2587 12 50.576 12.384C49.8934 12.768 49.3494 13.312 48.944 14.016C48.56 14.72 48.368 15.5733 48.368 16.576C48.368 17.5787 48.56 18.432 48.944 19.136C49.3494 19.84 49.8934 20.384 50.576 20.768C51.2587 21.152 52.0267 21.344 52.88 21.344C53.6694 21.344 54.3947 21.1627 55.056 20.8C55.7387 20.416 56.304 19.808 56.752 18.976L60.624 21.088C59.984 22.4747 58.992 23.552 57.648 24.32C56.304 25.0667 54.7254 25.44 52.912 25.44ZM71.5995 25.44C69.7435 25.44 68.0902 25.0667 66.6395 24.32C65.1889 23.552 64.0475 22.496 63.2155 21.152C62.4049 19.808 61.9995 18.2827 61.9995 16.576C61.9995 14.848 62.4049 13.3227 63.2155 12C64.0475 10.656 65.1889 9.61066 66.6395 8.86399C68.0902 8.09599 69.7435 7.71199 71.5995 7.71199C73.4129 7.71199 74.9915 8.09599 76.3355 8.86399C77.6795 9.61066 78.6715 10.688 79.3115 12.096L75.4395 14.176C74.9915 13.3653 74.4262 12.768 73.7435 12.384C73.0822 12 72.3569 11.808 71.5675 11.808C70.7142 11.808 69.9462 12 69.2635 12.384C68.5809 12.768 68.0369 13.312 67.6315 14.016C67.2475 14.72 67.0555 15.5733 67.0555 16.576C67.0555 17.5787 67.2475 18.432 67.6315 19.136C68.0369 19.84 68.5809 20.384 69.2635 20.768C69.9462 21.152 70.7142 21.344 71.5675 21.344C72.3569 21.344 73.0822 21.1627 73.7435 20.8C74.4262 20.416 74.9915 19.808 75.4395 18.976L79.3115 21.088C78.6715 22.4747 77.6795 23.552 76.3355 24.32C74.9915 25.0667 73.4129 25.44 71.5995 25.44ZM82.092 25.184V7.96799H87.084V25.184H82.092ZM84.588 5.56799C83.6707 5.56799 82.924 5.30132 82.348 4.76799C81.772 4.23466 81.484 3.57332 81.484 2.78399C81.484 1.99466 81.772 1.33332 82.348 0.79999C82.924 0.266656 83.6707 -1.14441e-05 84.588 -1.14441e-05C85.5054 -1.14441e-05 86.252 0.255989 86.828 0.76799C87.404 1.25866 87.692 1.89866 87.692 2.68799C87.692 3.51999 87.404 4.21332 86.828 4.76799C86.2734 5.30132 85.5267 5.56799 84.588 5.56799ZM102.181 7.71199C103.546 7.71199 104.762 7.98932 105.829 8.54399C106.917 9.07732 107.77 9.90932 108.389 11.04C109.008 12.1493 109.317 13.5787 109.317 15.328V25.184H104.325V16.096C104.325 14.7093 104.016 13.6853 103.397 13.024C102.8 12.3627 101.946 12.032 100.837 12.032C100.048 12.032 99.333 12.2027 98.693 12.544C98.0744 12.864 97.5837 13.3653 97.221 14.048C96.8797 14.7307 96.709 15.6053 96.709 16.672V25.184H91.717V7.96799H96.485V12.736L95.589 11.296C96.2077 10.144 97.093 9.25866 98.245 8.63999C99.397 8.02132 100.709 7.71199 102.181 7.71199ZM124.402 25.184V21.824L124.082 21.088V15.072C124.082 14.0053 123.751 13.1733 123.09 12.576C122.45 11.9787 121.458 11.68 120.114 11.68C119.197 11.68 118.29 11.8293 117.394 12.128C116.519 12.4053 115.773 12.7893 115.154 13.28L113.362 9.79199C114.301 9.13066 115.431 8.61866 116.754 8.25599C118.077 7.89332 119.421 7.71199 120.786 7.71199C123.41 7.71199 125.447 8.33066 126.898 9.56799C128.349 10.8053 129.074 12.736 129.074 15.36V25.184H124.402ZM119.154 25.44C117.81 25.44 116.658 25.216 115.698 24.768C114.738 24.2987 114.002 23.6693 113.49 22.88C112.978 22.0907 112.722 21.2053 112.722 20.224C112.722 19.2 112.967 18.304 113.458 17.536C113.97 16.768 114.77 16.1707 115.858 15.744C116.946 15.296 118.365 15.072 120.114 15.072H124.69V17.984H120.658C119.485 17.984 118.674 18.176 118.226 18.56C117.799 18.944 117.586 19.424 117.586 20C117.586 20.64 117.831 21.152 118.322 21.536C118.834 21.8987 119.527 22.08 120.402 22.08C121.234 22.08 121.981 21.888 122.642 21.504C123.303 21.0987 123.783 20.512 124.082 19.744L124.85 22.048C124.487 23.1573 123.826 24 122.866 24.576C121.906 25.152 120.669 25.44 119.154 25.44ZM140.632 25.44C138.605 25.44 137.027 24.928 135.896 23.904C134.765 22.8587 134.2 21.312 134.2 19.264V4.15999H139.192V19.2C139.192 19.9253 139.384 20.4907 139.768 20.896C140.152 21.28 140.675 21.472 141.336 21.472C142.125 21.472 142.797 21.2587 143.352 20.832L144.696 24.352C144.184 24.7147 143.565 24.992 142.84 25.184C142.136 25.3547 141.4 25.44 140.632 25.44ZM131.544 12.192V8.35199H143.48V12.192H131.544ZM147.498 25.184V7.96799H152.49V25.184H147.498ZM149.994 5.56799C149.077 5.56799 148.33 5.30132 147.754 4.76799C147.178 4.23466 146.89 3.57332 146.89 2.78399C146.89 1.99466 147.178 1.33332 147.754 0.79999C148.33 0.266656 149.077 -1.14441e-05 149.994 -1.14441e-05C150.912 -1.14441e-05 151.658 0.255989 152.234 0.76799C152.81 1.25866 153.098 1.89866 153.098 2.68799C153.098 3.51999 152.81 4.21332 152.234 4.76799C151.68 5.30132 150.933 5.56799 149.994 5.56799ZM165.315 25.44C163.481 25.44 161.849 25.056 160.419 24.288C159.011 23.52 157.891 22.4747 157.059 21.152C156.249 19.808 155.843 18.2827 155.843 16.576C155.843 14.848 156.249 13.3227 157.059 12C157.891 10.656 159.011 9.61066 160.419 8.86399C161.849 8.09599 163.481 7.71199 165.315 7.71199C167.129 7.71199 168.75 8.09599 170.179 8.86399C171.609 9.61066 172.729 10.6453 173.539 11.968C174.35 13.2907 174.755 14.8267 174.755 16.576C174.755 18.2827 174.35 19.808 173.539 21.152C172.729 22.4747 171.609 23.52 170.179 24.288C168.75 25.056 167.129 25.44 165.315 25.44ZM165.315 21.344C166.147 21.344 166.894 21.152 167.555 20.768C168.217 20.384 168.739 19.84 169.123 19.136C169.507 18.4107 169.699 17.5573 169.699 16.576C169.699 15.5733 169.507 14.72 169.123 14.016C168.739 13.312 168.217 12.768 167.555 12.384C166.894 12 166.147 11.808 165.315 11.808C164.483 11.808 163.737 12 163.075 12.384C162.414 12.768 161.881 13.312 161.475 14.016C161.091 14.72 160.899 15.5733 160.899 16.576C160.899 17.5573 161.091 18.4107 161.475 19.136C161.881 19.84 162.414 20.384 163.075 20.768C163.737 21.152 164.483 21.344 165.315 21.344ZM188.556 7.71199C189.921 7.71199 191.137 7.98932 192.204 8.54399C193.292 9.07732 194.145 9.90932 194.764 11.04C195.383 12.1493 195.692 13.5787 195.692 15.328V25.184H190.7V16.096C190.7 14.7093 190.391 13.6853 189.772 13.024C189.175 12.3627 188.321 12.032 187.212 12.032C186.423 12.032 185.708 12.2027 185.068 12.544C184.449 12.864 183.959 13.3653 183.596 14.048C183.255 14.7307 183.084 15.6053 183.084 16.672V25.184H178.092V7.96799H182.86V12.736L181.964 11.296C182.583 10.144 183.468 9.25866 184.62 8.63999C185.772 8.02132 187.084 7.71199 188.556 7.71199ZM202.105 25.44C201.252 25.44 200.516 25.152 199.897 24.576C199.3 23.9787 199.001 23.2213 199.001 22.304C199.001 21.3867 199.3 20.6507 199.897 20.096C200.516 19.52 201.252 19.232 202.105 19.232C202.98 19.232 203.716 19.52 204.313 20.096C204.91 20.6507 205.209 21.3867 205.209 22.304C205.209 23.2213 204.91 23.9787 204.313 24.576C203.716 25.152 202.98 25.44 202.105 25.44ZM219.056 7.71199C220.421 7.71199 221.637 7.98932 222.704 8.54399C223.792 9.07732 224.645 9.90932 225.264 11.04C225.883 12.1493 226.192 13.5787 226.192 15.328V25.184H221.2V16.096C221.2 14.7093 220.891 13.6853 220.272 13.024C219.675 12.3627 218.821 12.032 217.712 12.032C216.923 12.032 216.208 12.2027 215.568 12.544C214.949 12.864 214.459 13.3653 214.096 14.048C213.755 14.7307 213.584 15.6053 213.584 16.672V25.184H208.592V7.96799H213.36V12.736L212.464 11.296C213.083 10.144 213.968 9.25866 215.12 8.63999C216.272 8.02132 217.584 7.71199 219.056 7.71199ZM238.938 31.648C237.317 31.648 235.749 31.4453 234.234 31.04C232.741 30.656 231.493 30.0693 230.49 29.28L232.474 25.696C233.199 26.2933 234.117 26.7627 235.226 27.104C236.357 27.4667 237.466 27.648 238.554 27.648C240.325 27.648 241.605 27.2533 242.394 26.464C243.205 25.6747 243.61 24.5013 243.61 22.944V20.352L243.93 16.032L243.866 11.68V7.96799H248.602V22.304C248.602 25.504 247.77 27.8613 246.106 29.376C244.442 30.8907 242.053 31.648 238.938 31.648ZM238.17 24.352C236.57 24.352 235.119 24.0107 233.818 23.328C232.538 22.624 231.503 21.6533 230.714 20.416C229.946 19.1573 229.562 17.696 229.562 16.032C229.562 14.3467 229.946 12.8853 230.714 11.648C231.503 10.3893 232.538 9.41866 233.818 8.73599C235.119 8.05332 236.57 7.71199 238.17 7.71199C239.621 7.71199 240.901 8.01066 242.01 8.60799C243.119 9.18399 243.983 10.0907 244.602 11.328C245.221 12.544 245.53 14.112 245.53 16.032C245.53 17.9307 245.221 19.4987 244.602 20.736C243.983 21.952 243.119 22.8587 242.01 23.456C240.901 24.0533 239.621 24.352 238.17 24.352ZM239.162 20.256C240.037 20.256 240.815 20.0853 241.498 19.744C242.181 19.3813 242.714 18.88 243.098 18.24C243.482 17.6 243.674 16.864 243.674 16.032C243.674 15.1787 243.482 14.4427 243.098 13.824C242.714 13.184 242.181 12.6933 241.498 12.352C240.815 11.9893 240.037 11.808 239.162 11.808C238.287 11.808 237.509 11.9893 236.826 12.352C236.143 12.6933 235.599 13.184 235.194 13.824C234.81 14.4427 234.618 15.1787 234.618 16.032C234.618 16.864 234.81 17.6 235.194 18.24C235.599 18.88 236.143 19.3813 236.826 19.744C237.509 20.0853 238.287 20.256 239.162 20.256Z" fill="white"/>
</svg>
